<?xml version="1.0" encoding="iso-8859-1"?>
<!-- Generator: Adobe Illustrator 19.1.1, SVG Export Plug-In . SVG Version: 6.00 Build 0)  -->
<svg version="1.1"  xmlns="http://www.w3.org/2000/svg" xmlns:xlink="http://www.w3.org/1999/xlink" x="0px" y="0px"
	 viewBox="0 0 48 48" style="enable-background:new 0 0 48 48;" xml:space="preserve">
<path style="fill:#FFA726;" d="M15,27c0,2.208-1.791,4-4,4s-4-1.792-4-4c0-2.209,1.791-4,4-4S15,24.791,15,27 M41,27
	c0-2.209-1.791-4-4-4s-4,1.791-4,4c0,2.208,1.791,4,4,4S41,29.208,41,27"/>
<path style="fill:#FFB74D;" d="M10,19c0-12.725,28-10.285,28-2v13c0,8.286-8.167,15-14,15s-14-6.714-14-15V19z"/>
<path style="fill:#424242;" d="M8,19.338C8.474,13.365,9.67,7.482,17,6l2-3h5c9.229,0,16,7.481,16,18v3.4L37,28c0,0,0,0.5,0-6
	c0-10.5-13.5,4.375-20-9c-0.25,5.5-6,8-6,8v7l-3-3.6V21C8,20.435,7.934,19.883,8,19.338"/>
<path style="fill:#784719;" d="M33,28c0,1.105-0.895,2-2,2s-2-0.895-2-2s0.895-2,2-2S33,26.895,33,28 M19,28c0-1.105-0.896-2-2-2
	c-1.106,0-2,0.895-2,2s0.894,2,2,2C18.104,30,19,29.105,19,28"/>
<line style="fill:none;stroke:#FF9100;stroke-width:2;stroke-miterlimit:10;" x1="20" y1="38" x2="28" y2="38"/>
</svg>
